<?xml version="1.0" encoding="iso-8859-1"?>
<!-- Generator: Adobe Illustrator 19.0.0, SVG Export Plug-In . SVG Version: 6.00 Build 0)  -->
<svg xmlns="http://www.w3.org/2000/svg" xmlns:xlink="http://www.w3.org/1999/xlink" version="1.1" id="Layer_1" x="0px" y="0px" viewBox="0 0 512 512" style="enable-background:new 0 0 512 512;" xml:space="preserve" width="512px" height="512px">
<g>
	<g>
		<g>
			<path d="M470.833,69.765c-54.803-54.802-143.968-54.802-198.771,0l-16.095,16.096L239.87,69.765     c-26.547-26.547-61.842-41.166-99.385-41.166c-37.54,0-72.84,14.621-99.385,41.166c-54.801,54.801-54.801,143.968,0,198.769     l214.867,214.867l214.867-214.867C497.381,241.988,512,206.692,512,169.15C511.999,131.606,497.379,96.311,470.833,69.765z      M459.719,257.422L255.966,461.177L52.212,257.422c-48.674-48.674-48.674-127.872,0-176.545     c23.578-23.578,54.927-36.564,88.272-36.564s64.694,12.986,88.273,36.564l18.828,18.828v65.868l27.953,16.662l-64.066,16.049     l49.112,29.612l-12.997,19.26v42.793H207.72c-17.635,0-31.98,14.347-31.98,31.98c0,17.634,14.346,31.981,31.98,31.981h39.866     v20.942h15.715v-20.942h40.914c17.634,0,31.98-14.347,31.98-31.981s-14.346-31.98-31.98-31.98h-40.914v-37.987l19.56-28.986     l-30.906-18.635l64.328-16.115l-52.982-31.583v-55.892l19.875-19.875c48.672-48.672,127.873-48.674,176.545,0     c23.579,23.579,36.564,54.928,36.564,88.273S483.298,233.844,459.719,257.422z M304.214,305.666     c8.969,0,16.265,7.297,16.265,16.265c0,8.969-7.297,16.266-16.265,16.266h-96.495c-8.969,0-16.265-7.297-16.265-16.266     c0-8.969,7.297-16.265,16.265-16.265H304.214z" fill="#FFFFFF"/>
			<rect x="207.774" y="314.093" width="15.715" height="15.715" fill="#FFFFFF"/>
			<rect x="288.445" y="314.093" width="15.715" height="15.715" fill="#FFFFFF"/>
			<rect x="231.871" y="314.093" width="48.193" height="15.715" fill="#FFFFFF"/>
			<rect x="247.586" y="383.239" width="15.715" height="32.478" fill="#FFFFFF"/>
			<path d="M384.83,72.839v15.715c35.621,0,64.307,28.572,64.307,64.193h15.715C464.853,108.745,428.833,72.839,384.83,72.839z" fill="#FFFFFF"/>
			<rect x="247.586" y="423.051" width="16.763" height="15.715" fill="#FFFFFF"/>
		</g>
	</g>
</g>
<g>
</g>
<g>
</g>
<g>
</g>
<g>
</g>
<g>
</g>
<g>
</g>
<g>
</g>
<g>
</g>
<g>
</g>
<g>
</g>
<g>
</g>
<g>
</g>
<g>
</g>
<g>
</g>
<g>
</g>
</svg>
