<?xml version="1.0" encoding="utf-8"?>
<!-- Generator: Adobe Illustrator 16.0.0, SVG Export Plug-In . SVG Version: 6.00 Build 0)  -->
<!DOCTYPE svg PUBLIC "-//W3C//DTD SVG 1.1 Tiny//EN" "http://www.w3.org/Graphics/SVG/1.1/DTD/svg11-tiny.dtd">
<svg xmlns="http://www.w3.org/2000/svg" xmlns:xlink="http://www.w3.org/1999/xlink" version="1.1" baseProfile="tiny" id="Layer_1" x="0px" y="0px" width="512px" height="512px" viewBox="0 0 24 24" xml:space="preserve">
<path d="M17.452,2.044c-2.343,0-4.455,1.411-5.403,3.485c-0.96-2.1-3.056-3.485-5.443-3.485c-3.306,0-5.996,2.69-5.996,5.996  c0,9.016,10.667,13.619,11.284,13.877c0.001,0,0.001,0,0.001,0c0.005,0.002,0.014,0.007,0.018,0.008  c0.049,0.021,0.102,0.031,0.153,0.031s0.104-0.011,0.151-0.03c0.112-0.046,11.174-4.686,11.174-13.943  C23.391,4.708,20.727,2.044,17.452,2.044z M1.41,8.04c0-2.865,2.33-5.195,5.195-5.195c2.359,0,4.379,1.567,4.995,3.829L9.745,8.732  C9.662,8.824,9.626,8.95,9.648,9.072C9.671,9.195,9.749,9.3,9.86,9.356l3.356,1.714l-3.42,2.655  c-0.109,0.085-0.167,0.22-0.152,0.357c0.014,0.138,0.098,0.258,0.222,0.318l3.341,1.634l-3.41,2.649  c-0.085,0.065-0.14,0.161-0.152,0.268c-0.013,0.105,0.018,0.213,0.084,0.296l0.913,1.153C7.643,18.762,1.41,14.568,1.41,8.04z   M12.186,21.063l-1.579-1.995l3.598-2.795c0.109-0.084,0.167-0.219,0.152-0.356c-0.014-0.138-0.098-0.258-0.222-0.318l-3.341-1.634  l3.41-2.648c0.108-0.084,0.166-0.218,0.153-0.354c-0.013-0.137-0.095-0.257-0.217-0.319l-3.452-1.763l1.659-1.842  c0.045-0.049,0.07-0.107,0.086-0.167c0.001-0.006,0.007-0.008,0.008-0.014c0.519-2.326,2.626-4.014,5.011-4.014  c2.833,0,5.138,2.305,5.138,5.138C22.59,15.94,13.802,20.325,12.186,21.063z" fill="#FFFFFF"/>
</svg>
