<?xml version="1.0" encoding="iso-8859-1"?>
<!-- Generator: Adobe Illustrator 19.0.0, SVG Export Plug-In . SVG Version: 6.00 Build 0)  -->
<svg xmlns="http://www.w3.org/2000/svg" xmlns:xlink="http://www.w3.org/1999/xlink" version="1.1" id="Layer_1" x="0px" y="0px" viewBox="0 0 512 512" style="enable-background:new 0 0 512 512;" xml:space="preserve" width="512px" height="512px">
<g>
	<g>
		<circle cx="319.162" cy="43.088" r="42.056" fill="#FFFFFF"/>
	</g>
</g>
<g>
	<g>
		<path d="M123.674,87.066l-9.18-1.869c-10.984-2.232-21.696,4.855-23.932,15.836c-2.167,10.648,4.443,21.019,14.853,23.681    c8.366-8.326,18.417-13.608,30.023-15.461C129.97,102.927,125.888,95.376,123.674,87.066z" fill="#FFFFFF"/>
	</g>
</g>
<g>
	<g>
		<path d="M421.479,146.327c-0.133-26.346-21.675-47.78-48.021-47.78c-2.556,0-95.454-0.025-96.569,0.063l-47.505,3.758    l-6.059,6.886c13.952,2.225,25.168,9.325,33.816,19.587c5.004,5.938,7.623,13.52,7.626,21.285    c0.028,56.467,0.16,325.414,0.16,337.523c0,13.743,11.385,24.827,25.239,24.334c13.195-0.469,23.462-11.715,23.462-24.918V293.012    h10.513v194.053c0,13.203,10.267,24.449,23.462,24.918c13.854,0.492,25.239-10.591,25.239-24.334    c0-318.112-0.431-143.244-0.441-341.601c0-2.313,1.731-4.402,4.042-4.519c2.453-0.124,4.482,1.829,4.482,4.255    c0,0.241-0.01,0.489-0.03,0.747l0.748,149.079c0.056,11.173,9.13,20.19,20.289,20.19c0.035,0,0.07,0,0.104,0    c11.207-0.056,20.247-9.187,20.19-20.394L421.479,146.327z" fill="#FFFFFF"/>
	</g>
</g>
<g>
	<g>
		<path d="M438.171,0c-7.74,0-14.384,4.648-17.324,11.298C417.907,4.648,411.263,0,403.523,0c-10.462,0-18.943,8.481-18.943,18.943    c0,20.533,26.274,41.208,34.095,46.908c1.295,0.943,3.05,0.942,4.345-0.001c7.823-5.702,34.093-26.376,34.093-46.907    C457.113,8.481,448.633,0,438.171,0z" fill="#FFFFFF"/>
	</g>
</g>
<g>
	<g>
		<path d="M253.224,338.437c-29.181-150.658-25.965-133.154-27.06-142.098c6.678,18.295,15.044,40.388,22.7,60.364V156.128    c0-4.613-1.333-9.157-3.97-12.942c-8.617-12.373-20.038-18.624-34.128-18.624c-7.448,0-58.575,0-65.814,0    c-20.33,0-35.107,13.003-43.921,38.648c-13.657,39.746-44.674,124.604-44.985,125.456c-3.602,9.853,1.465,20.761,11.316,24.363    c9.856,3.603,20.761-1.468,24.363-11.317c0.264-0.724,22.538-61.66,37.75-104.728c-1.02,8.339,2.223-9.326-26.98,141.452    c-1.262,6.514,3.75,12.57,10.36,12.57c4.087,0,9.008,0,14.495,0v137.788c0,12.864,10.658,23.241,23.626,22.78    c12.352-0.44,21.962-10.967,21.962-23.325V351.007h9.842v137.241c0,12.36,9.611,22.886,21.962,23.325    c12.968,0.461,23.626-9.914,23.626-22.78V351.007c5.488,0,10.41,0,14.495,0C249.485,351.007,254.49,344.969,253.224,338.437z" fill="#FFFFFF"/>
	</g>
</g>
<g>
	<g>
		<circle cx="177.864" cy="72.642" r="39.362" fill="#FFFFFF"/>
	</g>
</g>
<g>
</g>
<g>
</g>
<g>
</g>
<g>
</g>
<g>
</g>
<g>
</g>
<g>
</g>
<g>
</g>
<g>
</g>
<g>
</g>
<g>
</g>
<g>
</g>
<g>
</g>
<g>
</g>
<g>
</g>
</svg>
