<?xml version="1.0" encoding="iso-8859-1"?>
<!-- Generator: Adobe Illustrator 16.0.0, SVG Export Plug-In . SVG Version: 6.00 Build 0)  -->
<!DOCTYPE svg PUBLIC "-//W3C//DTD SVG 1.1//EN" "http://www.w3.org/Graphics/SVG/1.1/DTD/svg11.dtd">
<svg xmlns="http://www.w3.org/2000/svg" xmlns:xlink="http://www.w3.org/1999/xlink" version="1.1" id="Capa_1" x="0px" y="0px" width="512px" height="512px" viewBox="0 0 45.852 45.852" style="enable-background:new 0 0 45.852 45.852;" xml:space="preserve">
<g>
	<g>
		<g>
			<path d="M27.749,1.06c-1.41-1.41-3.695-1.412-5.11-0.01c-1.415-1.402-3.699-1.4-5.11,0.01c-1.411,1.412-1.411,3.706,0,5.12     c0.069,0.067,3.425,3.407,4.66,4.637c0.249,0.248,0.651,0.248,0.9,0c1.236-1.229,4.593-4.569,4.66-4.637     C29.163,4.766,29.163,2.472,27.749,1.06z" fill="#FFFFFF"/>
		</g>
		<g>
			<g>
				<path d="M45.56,26.74L38.86,12.223c-0.39-0.841-1.383-1.208-2.225-0.819c-0.198,0.092-0.537,0.367-0.537,0.367      c-0.022,1.242-1.037,2.242-2.285,2.242c-1.247,0-2.262-1-2.284-2.242h-0.01c-0.083-0.087-0.176-0.165-0.278-0.234      c-0.767-0.516-1.809-0.314-2.323,0.454l-6.213,9.233l-6.225-9.251c-0.308-0.46-0.805-0.718-1.319-0.738v-0.002H4.179v0.006      c-0.874-0.07-1.655,0.539-1.789,1.414L0.157,27.17c-0.142,0.914,0.486,1.77,1.4,1.91c0.087,0.014,0.172,0.021,0.257,0.021      c0.813,0,1.526-0.593,1.654-1.42l1.136-7.387v23.883c0,0.925,0.75,1.675,1.675,1.675c0.925,0,1.675-0.75,1.675-1.675v-13.4      h3.351v13.4c0,0.925,0.751,1.675,1.676,1.675c0.925,0,1.676-0.75,1.676-1.675V15.259l6.559,9.748      c0.125,0.239,0.31,0.452,0.55,0.614c0.287,0.192,0.612,0.285,0.934,0.285c0.539,0,1.067-0.26,1.391-0.74l5.598-8.319      l-3.689,14.021c-0.133,0.508-0.023,1.047,0.296,1.463c0.32,0.414,0.814,0.657,1.338,0.657h2.171v11.167      c0,0.926,0.751,1.676,1.676,1.676c0.926,0,1.677-0.75,1.677-1.676V32.988h1.117v11.168c0,0.924,0.748,1.676,1.674,1.676      c0.925,0,1.675-0.752,1.675-1.676V32.988h2.171c0.523,0,1.018-0.242,1.338-0.658c0.319-0.414,0.429-0.955,0.296-1.461      l-3.121-11.858l4.218,9.135c0.282,0.613,0.889,0.974,1.521,0.974c0.234,0,0.473-0.05,0.701-0.153      C45.581,28.576,45.948,27.58,45.56,26.74z" fill="#FFFFFF"/>
			</g>
			<g>
				<circle cx="9.612" cy="5.648" r="3.69" fill="#FFFFFF"/>
			</g>
			<g>
				<circle cx="33.813" cy="6.784" r="3.69" fill="#FFFFFF"/>
			</g>
		</g>
	</g>
</g>
<g>
</g>
<g>
</g>
<g>
</g>
<g>
</g>
<g>
</g>
<g>
</g>
<g>
</g>
<g>
</g>
<g>
</g>
<g>
</g>
<g>
</g>
<g>
</g>
<g>
</g>
<g>
</g>
<g>
</g>
</svg>
