<?xml version="1.0" encoding="iso-8859-1"?>
<!-- Generator: Adobe Illustrator 19.0.0, SVG Export Plug-In . SVG Version: 6.00 Build 0)  -->
<svg xmlns="http://www.w3.org/2000/svg" xmlns:xlink="http://www.w3.org/1999/xlink" version="1.1" id="Layer_1" x="0px" y="0px" viewBox="0 0 512 512" style="enable-background:new 0 0 512 512;" xml:space="preserve" width="512px" height="512px">
<g>
	<g>
		<path d="M449.971,96.67c-7.622-8.099-20.365-8.487-28.466-0.866l-3.615,3.402c1.081,2.034-0.248-0.797,17.687,38.663l13.53-12.732    C457.207,117.515,457.594,104.77,449.971,96.67z" fill="#FFFFFF"/>
	</g>
</g>
<g>
	<g>
		<path d="M169.338,249.893c-0.095-18.87-15.524-34.222-34.395-34.222H56.917c-18.87,0-34.299,15.352-34.394,34.221    c-0.085,16.823-0.48,95.433-0.536,106.776c-0.04,8.027,6.435,14.566,14.461,14.606c0.024,0.001,0.049,0.001,0.075,0.001    c7.732-0.001,15.087-6.545,15.086-15.01l-0.018-105.607c0.008-1.547,1.267-2.796,2.814-2.792c1.547,0.004,2.798,1.26,2.798,2.806    c0,72.964,0.007,227.199,0.007,243.687c0,9.633,7.808,17.44,17.441,17.44s17.441-7.808,17.441-17.44V355.573v-0.619h7.53v0.619    v138.298v0.489c0,9.633,7.808,17.44,17.441,17.44s17.441-7.808,17.441-17.44v-0.489c0-126.081-0.308-120.552-0.316-243.817    c0-1.676,1.357-3.038,3.033-3.042c1.676-0.004,3.041,1.349,3.05,3.026l0.536,106.774c0.04,8.002,6.539,14.462,14.533,14.462    c0.024,0,0.05-0.001,0.075-0.001c8.004-0.04,14.461-6.543,14.458-14.54c0-0.022,0.003-0.045,0.003-0.067    C169.817,345.201,169.428,267.85,169.338,249.893z" fill="#FFFFFF"/>
	</g>
</g>
<g>
	<g>
		<path d="M249.241,230.099c-20.756-4.513-33.925-24.997-29.413-45.753c4.513-20.756,24.997-33.925,45.753-29.412l30.783,6.692    c-1.977-30.52-2.509-32.539-1.214-39.811c1.216-6.83,3.92-13.171,7.81-18.585c-1.517-0.459-3.009-0.98-4.476-1.554    c-12.301,0-86.557,0-97.535,0c-20.237,0-38.796,11.052-48.439,28.844l-7.275,13.424c2.86,6.554,4.457,13.781,4.457,21.377    c0,11.737-3.8,22.597-10.219,31.438c7.096,0.601,13.805,2.597,19.853,5.714l28.594-52.762c0.04-0.073,0.08-0.147,0.121-0.219    c0.717-1.27,2.201-1.898,3.611-1.526c1.41,0.371,2.392,1.647,2.392,3.106l0.009,336.763c0,13.347,10.82,24.167,24.167,24.167    s24.167-10.819,24.167-24.167V294.671h10.433v193.163c0,13.347,10.82,24.166,24.166,24.166s24.167-10.819,24.167-24.166    c0.002-6.223-0.435-240.31-0.435-246.544L249.241,230.099z" fill="#FFFFFF"/>
	</g>
</g>
<g>
	<g>
		<circle cx="96.049" cy="165.318" r="37.89" fill="#FFFFFF"/>
	</g>
</g>
<g>
	<g>
		<path d="M421.14,351.487v135.496c0,8.526-2.733,16.423-7.355,22.876c2.919,1.222,6.121,1.899,9.482,1.899    c13.57,0,24.571-11.001,24.571-24.571V344.794L421.14,351.487z" fill="#FFFFFF"/>
	</g>
</g>
<g>
	<g>
		<path d="M357.181,367.522v119.461c0,13.574,11.006,24.571,24.571,24.571c13.569,0,24.571-11,24.571-24.571V355.201    C401.082,356.516,362.513,366.185,357.181,367.522z" fill="#FFFFFF"/>
	</g>
</g>
<g>
	<g>
		<path d="M488.911,300.961c-10.492-23.083-84.151-185.136-86.939-191.271c-5.198-11.433-17.187-17.945-28.783-15.039    c-0.417,0.105-40.383,10.125-41.496,10.403c-9.1,2.281-16.176,10.008-17.928,20.208c-0.752,4.38,1.842,40.547,1.842,40.547    l9.499,2.065l18.864-31.956l-14.793,52.52l-67.682-14.714c-10.386-2.26-20.62,4.328-22.876,14.705    c-2.256,10.379,4.328,20.62,14.706,22.876l85.369,18.56c9.932,2.161,19.838-3.787,22.595-13.578l19.7-69.946l-1.19,75.16    c-0.302,19.054-17.913,32.964-36.441,29.064c-10.857-2.368-5.894-1.287-22.581-4.914l6.211,95.904    c0.462,7.127,6.876,12.293,13.312,10.679c30.979-7.767,110.91-27.806,141.911-35.579    C488.616,315.05,491.87,307.469,488.911,300.961z" fill="#FFFFFF"/>
	</g>
</g>
<g>
	<g>
		<path d="M361.553,35.425c-5.699-22.731-28.746-36.542-51.482-30.843c-10.768,2.699-19.528,9.295-25.166,17.902    c-2.832-5.435-6.821-10.168-11.646-13.87C266.224,3.216,257.429,0,247.876,0c-23.051,0-41.738,18.687-41.738,41.738    c0,23.051,18.687,41.738,41.738,41.738c7.883,0,15.255-2.187,21.544-5.986c5.242-3.166,9.73-7.45,13.135-12.523    c8.752,17.265,28.553,26.856,48.156,21.941C353.443,81.208,367.253,58.158,361.553,35.425z" fill="#FFFFFF"/>
	</g>
</g>
<g>
</g>
<g>
</g>
<g>
</g>
<g>
</g>
<g>
</g>
<g>
</g>
<g>
</g>
<g>
</g>
<g>
</g>
<g>
</g>
<g>
</g>
<g>
</g>
<g>
</g>
<g>
</g>
<g>
</g>
</svg>
