<?xml version="1.0" encoding="iso-8859-1"?>
<!-- Generator: Adobe Illustrator 16.0.0, SVG Export Plug-In . SVG Version: 6.00 Build 0)  -->
<!DOCTYPE svg PUBLIC "-//W3C//DTD SVG 1.1//EN" "http://www.w3.org/Graphics/SVG/1.1/DTD/svg11.dtd">
<svg xmlns="http://www.w3.org/2000/svg" xmlns:xlink="http://www.w3.org/1999/xlink" version="1.1" id="Capa_1" x="0px" y="0px" width="512px" height="512px" viewBox="0 0 226.5 226.501" style="enable-background:new 0 0 226.5 226.501;" xml:space="preserve">
<g>
	<g>
		<path d="M78.892,91.198h-3.888v17.826h2.965c2.642,0,5.086-0.706,5.086-5.824v-6.363C83.055,91.634,80.998,91.198,78.892,91.198z" fill="#FFFFFF"/>
		<path d="M155.518,91.198h-3.795v19.854h3.795c2.098,0,3.979-0.389,3.979-5.086v-9.682    C159.498,91.587,157.614,91.198,155.518,91.198z" fill="#FFFFFF"/>
		<path d="M202,181.669h-8.902c0.147-1.293,0.231-2.604,0.231-3.937V54.243c0-13.332-7.608-24.877-18.716-30.557    C169.006,9.801,155.411,0,139.518,0H86.984C71.09,0,57.495,9.801,51.887,23.686c-11.106,5.68-18.715,17.225-18.715,30.557v123.489    c0,1.332,0.084,2.644,0.231,3.937H24.5c-5.522,0-10,4.478-10,10v24.832c0,5.522,4.478,10,10,10H202c5.523,0,10-4.478,10-10    v-24.832C212,186.146,207.524,181.669,202,181.669z M94.528,145.16c-0.76,0.867-1.856,1.363-3.009,1.363h-4.142    c-1.976,0-3.655-1.441-3.954-3.396c-0.194-1.272-0.277-2.927-0.277-5.534v-10.145c0-6.648-2.786-7.205-5.64-7.205h-2.504v22.279    c0,2.209-1.791,4-4,4H66.86c-2.209,0-4-1.791-4-4V83.978c0-2.209,1.791-4,4-4h12.307c10.937,0,16.03,5.035,16.03,15.846v5.072    c0,6.264-1.815,10.556-5.538,13.054c3.831,2.397,5.63,6.835,5.63,13.778v9.959c0,1.75,0.033,3.082,0.196,4.312    C95.638,143.143,95.288,144.294,94.528,145.16z M123.139,142.523c0,2.209-1.791,4-4,4h-4.144c-2.209,0-4-1.791-4-4V83.978    c0-2.209,1.791-4,4-4h4.144c2.209,0,4,1.791,4,4V142.523z M171.641,105.321c0,14.011-8.769,16.951-16.123,16.951h-3.795v20.252    c0,2.209-1.791,4-4,4h-4.143c-2.209,0-4-1.791-4-4V83.978c0-2.209,1.791-4,4-4h11.938c7.354,0,16.123,2.941,16.123,16.953V105.321    z" fill="#FFFFFF"/>
	</g>
</g>
<g>
</g>
<g>
</g>
<g>
</g>
<g>
</g>
<g>
</g>
<g>
</g>
<g>
</g>
<g>
</g>
<g>
</g>
<g>
</g>
<g>
</g>
<g>
</g>
<g>
</g>
<g>
</g>
<g>
</g>
</svg>
