<?xml version="1.0" encoding="iso-8859-1"?>
<!-- Generator: Adobe Illustrator 16.0.0, SVG Export Plug-In . SVG Version: 6.00 Build 0)  -->
<!DOCTYPE svg PUBLIC "-//W3C//DTD SVG 1.1//EN" "http://www.w3.org/Graphics/SVG/1.1/DTD/svg11.dtd">
<svg xmlns="http://www.w3.org/2000/svg" xmlns:xlink="http://www.w3.org/1999/xlink" version="1.1" id="Capa_1" x="0px" y="0px" width="512px" height="512px" viewBox="0 0 181.248 181.248" style="enable-background:new 0 0 181.248 181.248;" xml:space="preserve">
<g>
	<path d="M173.481,79.225c-3.854,2.692-9.056,3.127-13.394,0.621c-4.351-2.503-6.573-7.22-6.165-11.91   c-4.688,0.411-9.398-1.821-11.904-6.162c-2.513-4.338-2.087-9.542,0.62-13.394c-4.268-1.985-7.234-6.277-7.234-11.286   c-0.012-5.013,2.967-9.304,7.234-11.29c-2.695-3.857-3.127-9.055-0.62-13.394c1.093-1.9,2.665-3.325,4.427-4.371   c-22.26-0.508-46.766,13.285-53.218,31.903C81.14,5.104,5.839-12.903,0.357,48.312C-6.706,127.079,93.221,173.23,93.221,173.23   s68.479-31.676,88.026-87.293C177.801,84.92,174.982,82.444,173.481,79.225z" fill="#FFFFFF"/>
</g>
<g>
</g>
<g>
</g>
<g>
</g>
<g>
</g>
<g>
</g>
<g>
</g>
<g>
</g>
<g>
</g>
<g>
</g>
<g>
</g>
<g>
</g>
<g>
</g>
<g>
</g>
<g>
</g>
<g>
</g>
</svg>
