<?xml version="1.0" encoding="iso-8859-1"?>
<!-- Generator: Adobe Illustrator 19.0.0, SVG Export Plug-In . SVG Version: 6.00 Build 0)  -->
<svg xmlns="http://www.w3.org/2000/svg" xmlns:xlink="http://www.w3.org/1999/xlink" version="1.1" id="Layer_1" x="0px" y="0px" viewBox="0 0 512 512" style="enable-background:new 0 0 512 512;" xml:space="preserve" width="512px" height="512px">
<g>
	<g>
		<path d="M256.635,488.075l-7.296-112.012c-0.14-2.145-0.586-4.257-1.326-6.274l-13.947-38.026    c-8.987-0.041-17.953-3.539-24.725-10.481c-5.696-5.839-43.523-44.613-49.306-50.541c-4.589-4.704-9.895-8.852-9.856-17.87    c-3.385,12.063-8.793,22.57-15.873,30.735c-3.956,4.562-8.327,8.235-12.752,11l12.307,84.009L105.08,483.594    c-3.279,11.963,3.76,24.32,15.722,27.6c11.96,3.28,24.319-3.756,27.6-15.722l30.047-109.593c0.833-3.043,1.017-6.227,0.539-9.345    l-10.125-66.011l9.861,0.811l25.998,70.883l7.086,108.778c0.808,12.395,11.52,21.766,23.874,20.954    C248.06,511.142,257.441,500.454,256.635,488.075z" fill="#FFFFFF"/>
	</g>
</g>
<g>
	<g>
		<path d="M233.359,151.34c-14.063,1.123-27.53-3.293-38.05-12.028l-22.776-1.872c-4.901-0.403-9.654,0.173-14.078,1.547    c1.68,3.773,2.843,8.1,3.557,12.957c8.036-3.556,16.908-5.517,25.752-4.452c11.298,1.36,21.077,7.315,29.066,17.701    c18.256,23.731,9.766,49.597,0.059,64.269l16.365,16.774l6.166-75.017C240.033,163.766,237.682,156.758,233.359,151.34z" fill="#FFFFFF"/>
	</g>
</g>
<g>
	<g>
		<path d="M247.621,283.939l-44.789-45.912l-5.773-53.442l11.568,30.004c4.823-10.138,8.291-25.529-3.274-40.564    c-5.003-6.503-11.205-11.176-19.319-12.151c-9.145-1.111-18.009,2.893-23.129,5.859c-0.115,8.282-0.957,17.545-2.324,27.715    l5.729,53.03c0.449,4.166,2.285,8.06,5.212,11.061l49.307,50.541c7.218,7.399,19.068,7.547,26.467,0.326    C254.695,303.188,254.84,291.339,247.621,283.939z" fill="#FFFFFF"/>
	</g>
</g>
<g>
	<g>
		<path d="M134.273,137.043c-16.862,0-50.959,38.239-70.095,70.105c12.35,2.776,30.228,9.545,41.242,26.027    c2.223,3.324,1.328,7.822-1.997,10.045c-3.332,2.226-7.825,1.322-10.045-1.998c-9.603-14.371-26.942-19.163-36.486-20.747    c-4.099,8.443-6.544,15.803-6.544,20.989c0,25.637,19.619,46.42,43.82,46.42c24.202-0.002,39.046-21.233,43.821-46.421    C146.085,198.756,158.474,137.043,134.273,137.043z" fill="#FFFFFF"/>
	</g>
</g>
<g>
	<g>
		<circle cx="229.111" cy="98.529" r="38.515" fill="#FFFFFF"/>
	</g>
</g>
<g>
	<g>
		<path d="M389.546,0c-39.823,0-72.107,21.817-72.107,48.729c0,8.798,3.467,17.043,9.503,24.168l-12.998,19.617    c-0.545,0.821-0.537,1.891,0.018,2.704c0.556,0.814,1.549,1.211,2.511,1.005l32.844-7.049c11.492,5.231,25.331,8.284,40.228,8.284    c39.823,0,72.105-21.817,72.105-48.729C461.652,21.817,429.37,0,389.546,0z M391.045,71.194c-0.893,0.651-2.103,0.65-2.997-0.001    c-5.397-3.933-23.514-18.192-23.514-32.352c0-7.216,5.849-13.065,13.065-13.065c2.844,0,5.469,0.917,7.613,2.461l-2.694,11.166    l-0.418,1.729l0.869,0.798l7.83,7.195l-2.289,8.984l4.742-8.947l0.267-0.504l-0.476-0.711l-5.243-7.832l6.111-11.897    c2.138-1.533,4.754-2.442,7.586-2.442c7.216,0,13.065,5.849,13.065,13.065C414.56,53.002,396.439,67.263,391.045,71.194z" fill="#FFFFFF"/>
	</g>
</g>
<g>
</g>
<g>
</g>
<g>
</g>
<g>
</g>
<g>
</g>
<g>
</g>
<g>
</g>
<g>
</g>
<g>
</g>
<g>
</g>
<g>
</g>
<g>
</g>
<g>
</g>
<g>
</g>
<g>
</g>
</svg>
