<?xml version="1.0" encoding="iso-8859-1"?>
<!-- Generator: Adobe Illustrator 19.0.0, SVG Export Plug-In . SVG Version: 6.00 Build 0)  -->
<svg xmlns="http://www.w3.org/2000/svg" xmlns:xlink="http://www.w3.org/1999/xlink" version="1.1" id="Layer_1" x="0px" y="0px" viewBox="0 0 512.001 512.001" style="enable-background:new 0 0 512.001 512.001;" xml:space="preserve" width="512px" height="512px">
<g>
	<g>
		<path d="M259.946,36.965c-27.234-9.338-56.882,5.171-66.219,32.405c-9.788,28.546,6.636,59.808,36.486,67.421l4.714-14.581    c7.195-22.259,31.075-34.466,53.335-27.277c1.993,0.644,3.902,1.427,5.728,2.326C299.515,71.777,285.216,45.629,259.946,36.965z" fill="#FFFFFF"/>
	</g>
</g>
<g>
	<g>
		<path d="M371.849,253.302c-11.048,0-97.472,0-111.585,0c3.757-4.684,1.132,1.52,37.44-110.797    c4.013-12.413-2.797-25.727-15.208-29.738c-12.416-4.011-25.727,2.797-29.738,15.208l-22.612,69.948l-48.196-40.364l35.927,17.391    l4.511-13.954c-5.823-9.596-15.457-16.273-26.502-18.35l-35.755-6.724c-21.615-4.064-42.401,10.304-46.25,31.946L90.395,299.937    c-1.842,10.359,0.519,21.025,6.561,29.639c10.55,15.038,25.221,16.186,33.203,17.567H77.732L44.024,175.67    c-2.082-10.594-12.364-17.498-22.954-15.412c-10.594,2.082-17.495,12.359-15.412,22.954l36.808,187.253    c1.802,9.169,9.839,15.781,19.182,15.781h3.435L23.421,494.274c-2.589,6.716,0.755,14.26,7.471,16.852    c6.732,2.591,14.265-0.765,16.852-7.471l45.28-117.408h74.105l25.571,66.302l-8.157,20.612    c-5.76,14.555,1.372,31.022,15.925,36.783c14.562,5.76,31.025-1.377,36.783-15.925l64.336-162.583    c3.459-8.742,2.359-18.629-2.938-26.395c-5.281-7.743-14.047-12.375-23.416-12.375c-0.028,0-0.056,0-0.084,0l-68.192,0.199    l4.031-20.467l-50.417-71.126l66.106,55.363c0.084,0.07,0.174,0.128,0.257,0.197c-2.54,2.379-4.137,5.752-4.137,9.507    c0,7.199,5.835,13.034,13.034,13.034c5.768,0,131.037,0,136.016,0c7.199,0,13.034-5.836,13.034-13.034    C384.884,259.136,379.048,253.302,371.849,253.302z M198.503,386.244c10.798,0,19.551-8.753,19.551-19.551    c0-7.396-4.108-13.829-10.166-17.151l25.6-0.075l-26.641,67.322l-11.78-30.544H198.503z" fill="#FFFFFF"/>
	</g>
</g>
<g>
	<!--g>
		<path d="M433.022,0c-40.7,0-73.693,22.296-73.693,49.802c0,8.991,3.544,17.419,9.712,24.7l-13.285,20.048    c-0.556,0.839-0.549,1.933,0.018,2.764c0.567,0.832,1.582,1.238,2.567,1.026l33.567-7.204c11.744,5.345,25.89,8.466,41.113,8.466    c40.7,0,73.693-22.298,73.693-49.802C506.715,22.296,473.722,0,433.022,0z M434.554,72.761c-0.912,0.665-2.15,0.666-3.063,0.001    c-5.514-4.018-24.033-18.592-24.033-33.065c0-7.375,5.979-13.352,13.352-13.352c2.907,0,5.59,0.937,7.78,2.515l-2.754,11.412    l-0.427,1.767l0.888,0.817l8.003,7.352l-2.34,9.182l4.845-9.145l0.273-0.515l-0.486-0.726L431.233,41l6.246-12.16    c2.186-1.567,4.859-2.496,7.753-2.496c7.375,0,13.352,5.979,13.352,13.352C458.585,54.168,440.069,68.741,434.554,72.761z" fill="#FFFFFF"/>
	</g-->
</g>
<g>
</g>
<g>
</g>
<g>
</g>
<g>
</g>
<g>
</g>
<g>
</g>
<g>
</g>
<g>
</g>
<g>
</g>
<g>
</g>
<g>
</g>
<g>
</g>
<g>
</g>
<g>
</g>
<g>
</g>
</svg>
