<?xml version="1.0" encoding="iso-8859-1"?>
<!-- Generator: Adobe Illustrator 19.0.0, SVG Export Plug-In . SVG Version: 6.00 Build 0)  -->
<svg xmlns="http://www.w3.org/2000/svg" xmlns:xlink="http://www.w3.org/1999/xlink" version="1.1" id="Layer_1" x="0px" y="0px" viewBox="0 0 512 512" style="enable-background:new 0 0 512 512;" xml:space="preserve" width="512px" height="512px">
<g>
	<g>
		<path d="M423.447,59.978c-5.602-27.59-30.1-47.613-58.251-47.613s-52.65,20.025-58.25,47.613l-13.839,68.17    c5.006-5.968,10.434-10.157,15.927-13.041l10.666-52.54c4.375-21.548,23.508-37.188,45.495-37.188s41.121,15.64,45.497,37.188    l10.666,52.54c5.493,2.884,10.92,7.073,15.928,13.041L423.447,59.978z" fill="#FFFFFF"/>
	</g>
</g>
<g>
	<g>
		<path d="M347.876,121.792c2.053,7.867,9.143,13.402,17.318,13.402c8.318,0,15.309-5.705,17.318-13.402    C372.39,121.792,358.783,121.792,347.876,121.792z" fill="#FFFFFF"/>
	</g>
</g>
<g>
	<g>
		<path d="M509.327,170.082c-5.297-8.78-16.712-11.604-25.493-6.305c-29.625,17.876-21.157,12.766-34.724,20.953    c-2.805-7.915-6.064-17.172-8.806-25.152c-7.323-21.311-20.298-37.784-42.938-37.784h-4.281    c-2.169,13.44-13.848,23.738-27.89,23.738c-13.971,0-25.713-10.249-27.89-23.738h-4.281c-16.359,0-29.036,8.619-37.815,25.646    c-3.89,7.544-4.127,9.709-15.391,41.411c-0.031-6.211-0.173-34.647-0.194-38.629c-0.128-25.291-20.806-45.866-46.097-45.866    h-17.199c-4.005,10.697-29.828,79.681-35.088,93.733c-5.262-14.056-31.084-83.035-35.088-93.733h-11.227    c-19.182,0-36.661,9.739-46.756,26.052l-17.323,27.993l-38.014-35.786c-7.834-7.373-20.161-7.002-27.535,0.832    c-7.374,7.834-7.002,20.161,0.832,27.535l55.381,52.133c8.97,8.445,23.441,6.532,29.916-3.934    c32.21-52.052,30.181-48.926,31.323-50.265c1.065-1.249,2.798-1.703,4.338-1.134c1.54,0.569,2.563,2.037,2.563,3.679    c-0.004,197.744-0.207,13.509-0.207,326.415c0,12.91,10.465,23.375,23.375,23.375s23.375-10.465,23.375-23.375V291.033h10.093    v186.843c0,12.91,10.465,23.375,23.375,23.375s23.375-10.465,23.375-23.375c0-343.765-0.203-105.297-0.208-327.438    c0-2.16,1.748-3.913,3.908-3.919c2.16-0.006,3.918,1.738,3.929,3.899c0.036,7.071,0.677,134.954,0.719,143.109    c0.054,10.725,8.765,19.382,19.477,19.382c0.033,0,0.068-0.001,0.1,0c12.114,0.178,15.982-7.112,19.006-15.656    c0,0,9.305-24.11,34.621-95.332l4.218,11.001c-15.933,26.333-26.404,55.112-31.147,85.653c-0.768,4.95-20.314,130.8-21.38,137.654    c-2.629,16.923,10.503,32.166,27.542,32.166h21.993v9.48c0,12.307,9.976,22.284,22.284,22.284    c12.307,0,22.284-9.977,22.284-22.284v-9.48h9.622v9.48c0,12.307,9.976,22.284,22.285,22.284c12.307,0,22.284-9.977,22.284-22.284    v-9.48h21.993c17.105,0,30.166-15.271,27.542-32.166c-1.221-7.858-20.176-129.902-21.38-137.654    c-4.743-30.541-15.214-59.321-31.147-85.653l4.218-11c1.846,5.195,3.834,10.763,5.964,16.712c0.003,0.009,0.008,0.017,0.011,0.026    c3.982,11.061,17.083,15.637,27.066,9.612c5.858-3.535,48.613-29.333,54.181-32.694    C511.802,190.276,514.625,178.863,509.327,170.082z M221.629,169.193h-18.081v-8.497h18.081V169.193z M329.573,176.648    c3.718-5.441,9.88-8.706,16.47-8.717c0.012,0,0.023,0,0.036,0c5.925,0,11.265,2.458,15.085,6.399    c1.653,1.705,3.025,3.684,4.031,5.867c1.006-2.184,2.379-4.162,4.031-5.867c3.82-3.941,9.16-6.399,15.085-6.399    c0.011,0,0.023,0,0.034,0c6.592,0.011,12.756,3.269,16.475,8.712c3.719,5.443,4.513,12.367,2.131,18.514l-5.485,14.156h-64.544    l-5.486-14.157C325.055,189.012,325.854,182.088,329.573,176.648z M428.429,300.796l21.38,137.654    c1.267,8.159-5.049,15.474-13.241,15.474c-33.112,0-109.616,0-142.744,0c-8.159,0-14.507-7.32-13.241-15.474l21.38-137.654    c4.22-27.172,13.476-53.282,27.244-77.01h71.979C414.953,247.514,424.208,273.623,428.429,300.796z" fill="#FFFFFF"/>
	</g>
</g>
<g>
	<g>
		<path d="M365.195,32.552c-21.256,0-38.487,17.232-38.487,38.487c0,21.315,17.326,38.487,38.487,38.487    c21.141,0,38.487-17.152,38.487-38.487C403.682,49.782,386.45,32.552,365.195,32.552z" fill="#FFFFFF"/>
	</g>
</g>
<g>
	<g>
		<circle cx="181.233" cy="51.116" r="40.369" fill="#FFFFFF"/>
	</g>
</g>
<g>
	<g>
		<path d="M199.274,95.021c-0.861-0.51-1.927-0.526-2.804-0.044l-15.233,8.375l-15.233-8.375c-0.876-0.482-1.942-0.465-2.804,0.044    c-0.861,0.51-1.389,1.435-1.389,2.435v6.576v12.502c0,1.001,0.529,1.927,1.389,2.435c0.861,0.51,1.927,0.526,2.804,0.044    l15.233-8.375l15.233,8.375c0.877,0.482,1.943,0.464,2.804-0.044c0.861-0.51,1.389-1.435,1.389-2.435v-12.502v-6.576    C200.664,96.456,200.135,95.53,199.274,95.021z" fill="#FFFFFF"/>
	</g>
</g>
<g>
	<g>
		<circle cx="181.233" cy="131.488" r="5.311" fill="#FFFFFF"/>
	</g>
</g>
<g>
	<g>
		<circle cx="181.233" cy="156.975" r="5.311" fill="#FFFFFF"/>
	</g>
</g>
<g>
</g>
<g>
</g>
<g>
</g>
<g>
</g>
<g>
</g>
<g>
</g>
<g>
</g>
<g>
</g>
<g>
</g>
<g>
</g>
<g>
</g>
<g>
</g>
<g>
</g>
<g>
</g>
<g>
</g>
</svg>
